<svg width="40" height="40" viewBox="0 0 40 40" fill="none" xmlns="http://www.w3.org/2000/svg">
<rect width="40" height="40" fill="#54C397"/>
<path d="M29.3906 19.9375C29.3906 23.75 28.3385 26.6875 26.2344 28.75C24.1406 30.8125 21.1927 31.8438 17.3906 31.8438H10V9H17.9062C21.5729 9 24.401 9.9375 26.3906 11.8125C28.3906 13.6875 29.3906 16.3958 29.3906 19.9375ZM22.9844 20.1562C22.9844 18.0625 22.5677 16.5104 21.7344 15.5C20.9115 14.4896 19.6562 13.9844 17.9688 13.9844H16.1719V26.7812H17.5469C19.4219 26.7812 20.7969 26.2396 21.6719 25.1562C22.5469 24.0625 22.9844 22.3958 22.9844 20.1562Z" fill="white"/>
</svg>
